<?xml version="1.0" standalone="no"?>
<!DOCTYPE svg PUBLIC "-//W3C//DTD SVG 20010904//EN"
 "http://www.w3.org/TR/2001/REC-SVG-20010904/DTD/svg10.dtd">
<svg version="1.0" xmlns="http://www.w3.org/2000/svg"
 width="500.000000pt" height="500.000000pt" viewBox="0 0 500.000000 500.000000"
 preserveAspectRatio="xMidYMid meet">

<g transform="translate(0.000000,500.000000) scale(0.100000,-0.100000)"
fill="#000000" stroke="none">
<path d="M1375 4064 c-77 -41 -253 -130 -391 -198 -138 -69 -256 -131 -263
-140 -15 -18 -3 -89 35 -199 53 -153 76 -283 78 -432 2 -101 6 -140 14 -139 7
1 20 2 31 3 29 2 159 91 233 160 40 37 72 59 79 55 24 -14 3 -180 -41 -329
-61 -207 -63 -214 -58 -374 4 -128 8 -155 32 -221 37 -100 105 -234 173 -338
30 -47 55 -92 55 -101 0 -9 -9 -61 -21 -116 -12 -55 -27 -129 -32 -165 -15
-90 -6 -255 16 -305 52 -120 67 -146 113 -196 65 -71 145 -112 228 -117 54 -4
70 0 128 28 37 18 82 50 101 71 19 22 40 39 46 39 6 0 37 -23 68 -52 96 -88
189 -142 313 -184 149 -49 355 -27 498 54 25 14 54 30 66 36 30 16 124 96 152
128 31 37 46 35 71 -6 47 -75 143 -121 239 -114 196 14 362 232 362 473 0 67
-38 305 -66 418 -5 23 0 36 33 75 45 55 78 107 88 142 4 14 22 50 41 80 18 30
50 98 71 150 36 93 37 97 38 235 0 126 -3 149 -28 230 -92 293 -107 369 -87
429 6 20 14 36 17 36 3 0 27 -19 53 -42 127 -116 240 -188 294 -188 7 0 11 50
12 158 1 135 5 173 28 272 16 63 36 138 46 165 10 28 23 76 29 107 15 70 5 93
-47 115 -96 39 -362 169 -632 308 -69 36 -137 65 -151 65 -14 0 -81 -20 -150
-45 -68 -25 -185 -66 -259 -92 l-135 -45 -59 36 c-72 44 -106 45 -213 11 -99
-31 -144 -31 -251 1 -106 32 -156 29 -217 -15 -24 -17 -50 -31 -58 -31 -33 0
-374 116 -485 165 -57 26 -90 17 -237 -61z m231 -78 c22 -8 67 -27 100 -41 73
-33 260 -95 285 -95 25 0 24 -22 -1 -45 -33 -30 -25 -51 25 -71 l45 -17 57 62
c73 77 120 111 153 111 24 0 148 -37 160 -47 3 -3 7 -147 10 -321 l5 -317 48
1 c26 0 53 6 60 13 9 9 12 89 12 321 l0 308 60 21 c87 31 115 28 172 -17 26
-21 65 -57 85 -80 39 -43 58 -49 103 -32 36 14 42 37 16 64 -11 12 -21 26 -21
32 0 5 55 28 123 50 67 23 169 59 227 79 l105 38 285 -145 c157 -79 314 -157
349 -171 72 -31 70 -22 31 -157 -35 -120 -59 -232 -60 -275 -2 -81 -9 -82 -80
-13 -107 103 -178 205 -272 393 -83 163 -107 201 -146 229 -54 38 -117 39
-190 2 -57 -29 -121 -91 -122 -118 0 -10 18 -29 40 -43 69 -43 188 -163 195
-196 4 -16 19 -37 33 -46 104 -66 149 -128 137 -190 -12 -67 -36 -102 -81
-119 -57 -21 -72 -11 -39 28 44 52 31 94 -34 109 -119 27 -330 -64 -490 -210
-44 -41 -131 -81 -175 -81 -13 0 -38 10 -57 23 -41 28 -46 59 -28 167 22 133
89 216 239 297 50 27 55 33 53 63 -1 18 -10 42 -21 53 -20 20 -21 20 -69 2
-137 -52 -248 -160 -303 -293 -24 -59 -54 -191 -49 -218 6 -31 -3 -34 -90 -34
l-89 0 -4 103 c-4 96 -6 106 -43 175 -73 136 -177 227 -308 268 -68 21 -77 16
-84 -50 l-6 -45 59 -27 c59 -27 146 -87 175 -122 9 -11 29 -41 45 -68 26 -44
28 -57 29 -147 0 -96 -1 -100 -26 -119 -50 -37 -179 -14 -179 33 0 14 -38 39
-60 39 -4 0 -45 25 -91 55 -45 31 -119 74 -164 96 -73 36 -90 40 -156 41 -81
0 -145 -20 -156 -48 -3 -10 1 -30 10 -46 16 -27 15 -28 -6 -28 -36 1 -67 33
-78 79 -15 66 12 116 95 177 54 40 68 57 77 88 13 47 54 88 162 159 42 29 77
57 77 63 0 28 -71 101 -124 128 -86 44 -190 36 -234 -16 -6 -8 -58 -107 -115
-221 -58 -113 -124 -230 -147 -259 -57 -72 -126 -145 -155 -164 -23 -15 -24
-15 -30 23 -15 102 -29 156 -86 346 -11 38 -18 74 -16 81 3 8 38 27 79 44 40
17 194 92 342 166 148 75 271 136 275 136 3 0 24 -7 47 -14z m-19 -233 c2 -6
-22 -30 -54 -53 -32 -22 -59 -36 -61 -31 -2 6 9 31 24 56 23 41 30 46 57 43
17 -2 32 -8 34 -15z m1903 -25 c16 -22 30 -47 30 -55 0 -15 -19 -3 -85 51
l-30 25 25 10 c14 5 26 10 27 10 2 1 16 -18 33 -41z m-1758 -634 c-14 -84 -13
-123 2 -151 38 -74 136 -94 226 -47 58 30 76 25 55 -16 -8 -15 -19 -30 -24
-32 -5 -1 -31 -23 -57 -48 -47 -43 -50 -45 -106 -43 -93 3 -173 60 -212 150
-23 53 -18 139 13 206 l22 48 42 -24 c30 -16 41 -28 39 -43z m1637 7 c38 -90
24 -195 -35 -261 -41 -45 -123 -80 -188 -80 -36 0 -50 6 -92 44 -76 69 -85 79
-82 95 5 25 35 24 75 -3 68 -47 163 -27 211 44 21 31 23 43 19 102 -6 64 -5
68 21 87 39 30 47 26 71 -28z m-1936 -55 l32 -2 6 -69 c12 -153 81 -265 193
-316 23 -10 49 -19 59 -19 9 0 17 -4 17 -10 0 -5 -27 -47 -59 -94 -61 -87 -88
-131 -149 -246 -40 -73 -102 -218 -102 -236 0 -6 -6 -17 -14 -23 -12 -10 -24
1 -67 66 -68 103 -105 199 -125 321 -19 122 -10 187 61 434 62 216 59 210 90
202 14 -3 40 -7 58 -8z m2226 -23 c6 -21 11 -43 11 -49 0 -13 33 -123 67 -224
21 -61 26 -101 30 -216 3 -82 1 -161 -5 -190 -13 -62 -80 -202 -114 -241 -9
-10 -23 -33 -32 -50 -9 -18 -20 -33 -24 -33 -4 0 -18 24 -31 53 -48 106 -106
223 -121 247 -21 31 -76 124 -102 170 -11 19 -35 56 -54 83 -19 26 -34 51 -34
57 0 5 16 13 35 19 126 35 222 163 243 325 7 55 9 59 42 71 63 23 78 19 89
-22z m-1771 7 c17 -11 32 -23 32 -28 0 -14 -23 -32 -42 -32 -22 0 -52 44 -44
65 7 20 14 19 54 -5z m1276 4 c8 -20 -19 -64 -38 -64 -7 0 -20 7 -27 16 -11
14 -10 20 14 40 33 28 43 30 51 8z m-493 -150 c174 -52 368 -214 524 -439 84
-120 183 -300 215 -390 12 -33 28 -73 35 -90 24 -53 83 -267 95 -345 35 -235
35 -217 7 -329 -33 -131 -71 -192 -139 -221 -90 -38 -164 -18 -211 57 -23 38
-51 152 -62 253 -34 328 -69 436 -182 569 -98 116 -174 164 -318 201 l-70 18
-3 80 -3 81 31 16 c17 9 47 38 66 65 28 39 42 50 63 50 41 0 120 30 130 49 12
21 -33 219 -54 240 -11 12 -68 14 -301 15 -342 1 -314 13 -334 -150 -12 -106
-12 -108 9 -125 11 -10 40 -20 64 -24 82 -12 97 -17 97 -30 0 -30 23 -62 61
-85 l39 -25 0 -82 0 -82 -57 -12 c-78 -18 -75 -19 -88 21 -10 29 -17 36 -43
38 -21 2 -38 -4 -53 -19 -18 -18 -20 -28 -15 -69 6 -48 6 -49 -36 -78 -83 -57
-149 -133 -188 -217 -44 -92 -80 -246 -80 -337 0 -86 -27 -293 -41 -321 -75
-141 -209 -155 -317 -32 -77 88 -101 279 -62 485 21 110 42 191 66 250 7 19
18 55 25 80 21 85 149 348 220 453 27 40 57 83 66 97 26 37 120 137 193 203
100 92 193 148 295 178 81 24 279 26 356 3z m27 -256 c21 -21 14 -47 -15 -54
-109 -24 -118 -30 -125 -74 -2 -16 -12 -28 -29 -34 -42 -15 -77 0 -97 41 -14
31 -26 40 -75 56 -49 16 -58 22 -55 41 3 20 9 21 158 26 85 3 171 7 191 8 19
1 40 -3 47 -10z m-88 -612 c74 -16 123 -41 195 -102 106 -88 162 -213 167
-371 l3 -98 -47 -60 c-88 -114 -143 -155 -253 -190 -76 -25 -96 -27 -197 -23
-95 4 -124 9 -182 33 -115 47 -254 178 -271 254 -3 14 -1 74 4 132 13 147 51
231 143 312 36 31 69 57 73 57 4 0 20 9 35 20 61 44 215 60 330 36z m370 -828
c0 -23 -127 -135 -197 -174 -198 -111 -378 -112 -573 -1 -97 55 -206 177 -158
177 7 0 26 -13 43 -29 39 -36 124 -82 200 -107 49 -15 88 -19 210 -19 146 1
152 2 233 34 75 30 164 81 202 117 18 17 40 18 40 2z"/>
<path d="M1730 3572 c-23 -7 -40 -33 -40 -63 0 -35 13 -44 85 -58 33 -6 70
-14 82 -17 19 -5 23 -1 28 29 9 47 -1 74 -33 91 -30 15 -99 25 -122 18z"/>
<path d="M3178 3568 c-56 -15 -71 -37 -63 -92 4 -25 12 -46 18 -46 6 0 33 7
61 15 28 8 63 17 78 20 32 6 46 43 32 84 -8 22 -16 26 -49 28 -22 1 -57 -3
-77 -9z"/>
<path d="M1932 2357 c-43 -46 -17 -107 46 -107 59 0 83 72 36 109 -34 27 -55
26 -82 -2z"/>
<path d="M2993 2365 c-29 -20 -31 -75 -5 -98 42 -38 102 -8 102 50 0 50 -56
77 -97 48z"/>
<path d="M1746 2084 c-22 -21 -20 -77 2 -97 57 -51 135 34 88 96 -17 21 -69
22 -90 1z"/>
<path d="M3162 2088 c-33 -33 1 -118 48 -118 50 0 79 79 42 113 -22 20 -73 22
-90 5z"/>
<path d="M3294 1764 c-20 -19 -24 -31 -20 -52 7 -29 40 -62 61 -62 26 0 65 41
65 68 0 33 -8 45 -37 61 -31 16 -41 14 -69 -15z"/>
<path d="M1610 1760 c-26 -26 -25 -51 1 -84 38 -48 109 -23 109 38 0 60 -68
88 -110 46z"/>
<path d="M2333 1851 c-73 -21 -93 -35 -93 -66 0 -31 37 -75 63 -75 12 0 44 7
71 15 64 20 167 19 260 -1 84 -19 97 -15 115 37 9 26 7 34 -13 54 -51 51 -278
72 -403 36z"/>
<path d="M4015 2116 c-38 -6 -76 -15 -82 -19 -21 -13 -16 -64 8 -80 27 -20
176 -12 202 11 24 22 22 67 -5 86 -25 18 -25 18 -123 2z"/>
<path d="M853 2109 c-19 -20 -15 -67 7 -89 28 -28 168 -29 193 -2 23 25 22 69
-2 82 -33 17 -184 24 -198 9z"/>
<path d="M3871 1874 c-35 -44 -27 -62 53 -118 72 -51 97 -59 125 -39 26 18 28
74 4 94 -28 23 -140 89 -151 89 -6 0 -20 -12 -31 -26z"/>
<path d="M1001 1855 c-99 -62 -106 -76 -66 -119 39 -42 47 -39 168 54 33 26
34 50 4 78 -30 28 -41 27 -106 -13z"/>
</g>
</svg>
